<svg xmlns="http://www.w3.org/2000/svg" viewBox="0 0 361 361"><defs><style>.cls-1{fill:#33bba4;}.cls-2{fill:#3e3e3f;}.cls-2,.cls-3,.cls-4,.cls-5,.cls-6{fill-rule:evenodd;}.cls-3{fill:#343434;}.cls-4{fill:#fff;}.cls-5{fill:#2d2d2d;}.cls-6{fill:#5a5b5e;}</style></defs><g id="Capa_1" data-name="Capa 1"><circle class="cls-1" cx="180.5" cy="180.5" r="180.5"/></g><g id="Capa_2" data-name="Capa 2"><path class="cls-2" d="M208,158H292c23.4,0,39.1,14.83,42.54,32.53l14.12,72.54c3.44,17.69-19.15,32.52-42.54,32.52H193.91c-23.39,0-46-14.83-42.54-32.52l14.12-72.54C168.93,172.86,184.63,158,208,158Z" transform="translate(-69.5 -69.5)"/><path class="cls-3" d="M208,168.31H292c23.4,0,39.1,14.83,42.54,32.52l14.12,72.54c3.44,17.7-19.15,32.53-42.54,32.53H193.91c-23.39,0-46-14.83-42.54-32.53l14.12-72.54C168.93,183.14,184.63,168.31,208,168.31Z" transform="translate(-69.5 -69.5)"/><path class="cls-4" d="M173.76,321.6H183a2.16,2.16,0,0,1,2.13,2.47l-2.33,16.05a2.15,2.15,0,0,1-2.13,1.85h-4.55a2.15,2.15,0,0,1-2.13-1.85l-2.33-16.05A2.16,2.16,0,0,1,173.76,321.6Z" transform="translate(-69.5 -69.5)"/><path class="cls-4" d="M318.78,321.6H328a2.15,2.15,0,0,1,2.13,2.46l-2.33,16.07a2.16,2.16,0,0,1-2.13,1.84h-4.56a2.15,2.15,0,0,1-2.12-1.84l-2.34-16.07A2.16,2.16,0,0,1,318.78,321.6Z" transform="translate(-69.5 -69.5)"/><path class="cls-5" d="M319.73,323.27h36.5c7,0,6.09-6.09,7.54-13.14l6.49-78.22c1.46-7-3.06-12.82-10-12.82h-19c-7,0-13.87,5.77-15.32,12.82l-10.92,53H185l-10.92-53c-1.45-7-8.34-12.82-15.32-12.82h-19c-7,0-11.5,5.77-10,12.82l8.88,78.54c1.45,7.05-1.59,12.82,5.39,12.82H319.73Z" transform="translate(-69.5 -69.5)"/><path class="cls-2" d="M320.5,315.74h31.59c7.05,0,8.22-6.1,9.69-13.15l9.81-78.21c1.47-7-3.1-12.82-10.15-12.82H342.21c-7,0-14,5.77-15.5,12.82l-10,47.84-2.92,3.87H186.07l-3-4.91-9.75-46.8c-1.47-7-8.45-12.82-15.5-12.82H138.56c-7.05,0-11.62,5.77-10.15,12.82l9.3,78.21c1.47,7.05-.59,13.15,6.46,13.15H320.5Z" transform="translate(-69.5 -69.5)"/><path class="cls-6" d="M182.58,246.68h136.8a3.79,3.79,0,0,1,3.78,3.78v23.89a3.79,3.79,0,0,1-3.78,3.78H182.58a3.79,3.79,0,0,1-3.78-3.78V250.46A3.79,3.79,0,0,1,182.58,246.68Z" transform="translate(-69.5 -69.5)"/></g></svg>